<svg width="22" height="22" viewBox="0 0 22 22" fill="none" xmlns="http://www.w3.org/2000/svg">
<path d="M10.7874 12.0312H11.217V13.75H10.7874V12.0312Z" fill="#4D2419"/>
<path d="M11.0022 12.2461C10.9464 12.2461 10.8905 12.2246 10.8518 12.1816L10.1686 11.4984C10.0139 11.3438 9.92798 11.1375 9.92798 10.9183C9.92798 10.4629 10.2975 10.0977 10.7487 10.0977H11.2514C11.7069 10.0977 12.0721 10.4672 12.0721 10.9183C12.0721 11.1375 11.9862 11.3438 11.8315 11.4984L11.1483 12.1816C11.1139 12.2246 11.0581 12.2461 11.0022 12.2461ZM10.7487 10.5273C10.5338 10.5273 10.3577 10.7035 10.3577 10.9183C10.3577 11.0215 10.4006 11.1203 10.4737 11.1976L11.0022 11.7262L11.5307 11.1976C11.6038 11.1246 11.6467 11.0258 11.6467 10.9183C11.6467 10.7035 11.4706 10.5273 11.2557 10.5273H10.7487Z" fill="#4D2419"/>
<path d="M9.32642 11.1719H8.89673V10.3125C8.89673 9.95586 8.6088 9.66797 8.2522 9.66797C7.89557 9.66797 7.60767 9.95586 7.60767 10.3125V11.1719H7.17798V10.3125C7.17798 9.71953 7.65924 9.23828 8.2522 9.23828C8.84517 9.23828 9.32642 9.71953 9.32642 10.3125V11.1719Z" fill="#4D2419"/>
<path d="M14.8264 11.1719H14.3967V10.3125C14.3967 9.95586 14.1089 9.66797 13.7522 9.66797C13.3956 9.66797 13.1077 9.95586 13.1077 10.3125V11.1719H12.678V10.3125C12.678 9.71953 13.1593 9.23828 13.7522 9.23828C14.3452 9.23828 14.8264 9.71953 14.8264 10.3125V11.1719Z" fill="#4D2419"/>
<path d="M3.19907 15.6909L3.30349 16.1077L1.58624 16.5379L1.48183 16.1211L3.19907 15.6909Z" fill="#4D2419"/>
<path d="M1.30522 13.0684L3.02247 13.4986L2.91805 13.9154L1.2008 13.4852L1.30522 13.0684Z" fill="#4D2419"/>
<path d="M21.0814 14.3989L21.1858 14.8157L19.4686 15.2459L19.3641 14.8291L21.0814 14.3989Z" fill="#4D2419"/>
<path d="M19.177 14.3657L20.8943 14.7959L20.7899 15.2127L19.0726 14.7825L19.177 14.3657Z" fill="#4D2419"/>
<path d="M13.0647 13.9648H8.9397C8.34673 13.9648 7.86548 13.4836 7.86548 12.8906H8.29517C8.29517 13.2473 8.58308 13.5352 8.9397 13.5352H13.0647C13.4213 13.5352 13.7092 13.2473 13.7092 12.8906H14.1389C14.1389 13.4836 13.6577 13.9648 13.0647 13.9648Z" fill="#4D2419"/>
<path d="M11.0022 16.0273C9.7475 16.0273 8.72485 15.0046 8.72485 13.75C8.72485 13.6296 8.81938 13.5352 8.9397 13.5352H13.0647C13.185 13.5352 13.2795 13.6296 13.2795 13.75C13.2795 15.0046 12.2569 16.0273 11.0022 16.0273ZM9.16742 13.9648C9.27484 14.8843 10.0569 15.5977 11.0022 15.5977C11.9475 15.5977 12.7295 14.8843 12.837 13.9648H9.16742Z" fill="#4D2419"/>
<path d="M5.15845 12.8691C4.30339 12.8691 3.4397 12.5727 3.4397 12.0098C3.4397 11.4469 4.30339 11.1504 5.15845 11.1504C6.01355 11.1504 6.8772 11.4469 6.8772 12.0098C6.8772 12.5727 6.01355 12.8691 5.15845 12.8691ZM5.15845 11.5801C4.35925 11.5801 3.86938 11.8594 3.86938 12.0098C3.86938 12.1602 4.35925 12.4395 5.15845 12.4395C5.95769 12.4395 6.44751 12.1602 6.44751 12.0098C6.44751 11.8594 5.95769 11.5801 5.15845 11.5801Z" fill="#4D2419"/>
<path d="M16.8459 12.8691C15.9909 12.8691 15.1272 12.5727 15.1272 12.0098C15.1272 11.4469 15.9909 11.1504 16.8459 11.1504C17.7011 11.1504 18.5647 11.4469 18.5647 12.0098C18.5647 12.5727 17.7011 12.8691 16.8459 12.8691ZM16.8459 11.5801C16.0468 11.5801 15.5569 11.8594 15.5569 12.0098C15.5569 12.1602 16.0468 12.4395 16.8459 12.4395C17.6452 12.4395 18.135 12.1602 18.135 12.0098C18.135 11.8594 17.6452 11.5801 16.8459 11.5801Z" fill="#4D2419"/>
<path d="M8.84946 5.75761C8.23932 5.75761 7.58189 4.47284 7.26822 3.65215L7.66783 3.49745C8.16197 4.7994 8.69907 5.32362 8.84087 5.32362H8.84517C8.944 5.25917 9.03426 4.59746 8.6389 3.36426L9.04713 3.23535C9.16743 3.60487 9.71744 5.46112 8.99129 5.72754C8.944 5.74902 8.89671 5.75761 8.84946 5.75761Z" fill="#4D2419"/>
<path d="M13.155 5.7577C13.1076 5.7577 13.0561 5.74911 13.0088 5.73193C12.2784 5.46552 12.8327 3.60928 12.953 3.23975L13.3612 3.36865C12.9659 4.60185 13.0561 5.25928 13.1592 5.32802H13.1635C13.301 5.32802 13.8381 4.8038 14.3323 3.50185L14.7318 3.65654C14.4268 4.47295 13.7694 5.7577 13.155 5.7577Z" fill="#4D2419"/>
<path d="M11.0022 6.44533C10.1643 6.44533 9.71313 4.78674 9.71313 3.22266H10.1428C10.1428 4.92854 10.6499 6.01562 11.0022 6.01562C11.3546 6.01562 11.8616 4.92854 11.8616 3.22266H12.2913C12.2913 4.78674 11.8401 6.44533 11.0022 6.44533Z" fill="#4D2419"/>
<path d="M2.185 7.11992C2.15923 7.07695 2.13344 7.03828 2.10766 6.99531C1.48032 5.97266 1.14946 4.79961 1.14946 3.60078C1.14946 2.39766 1.48461 1.22461 2.12055 0.20625L2.185 0.103125C2.22368 0.0386719 2.29243 0 2.36547 0H2.42993C4.79751 0 6.97172 1.28906 8.1018 3.36445L7.72368 3.5707C6.67524 1.65 4.6686 0.446875 2.48149 0.429688C1.26977 2.38477 1.26548 4.8125 2.4686 6.76758C2.49438 6.80625 2.51587 6.84492 2.54164 6.88359L2.185 7.11992Z" fill="#4D2419"/>
<path d="M4.09496 4.30029L7.90505 8.11038L7.60121 8.41422L3.79112 4.60413L4.09496 4.30029Z" fill="#4D2419"/>
<path d="M4.09496 4.30029L7.90505 8.11038L7.60121 8.41422L3.79112 4.60413L4.09496 4.30029Z" fill="#4D2419"/>
<path d="M19.8193 7.11992L19.4584 6.88789C19.4842 6.84922 19.5057 6.81055 19.5315 6.77188C20.7346 4.8168 20.7303 2.38477 19.5186 0.433985C17.3315 0.455469 15.3249 1.6543 14.2763 3.575L13.8983 3.36875C15.0326 1.28906 17.2069 0 19.5745 0H19.6389C19.7119 0 19.7807 0.0386719 19.8237 0.103125L19.8881 0.20625C20.5198 1.22891 20.8549 2.40195 20.8592 3.60078C20.8592 4.79961 20.5283 5.97266 19.901 6.99531C19.8709 7.03828 19.8452 7.08125 19.8193 7.11992Z" fill="#4D2419"/>
<path d="M19.6128 5.75244L19.9167 6.05628L16.1066 9.86637L15.8027 9.56253L19.6128 5.75244Z" fill="#4D2419"/>
<path d="M11.3545 21.9998H10.6542C9.03423 21.9998 7.44868 21.7119 5.93188 21.1447C4.18306 20.4916 2.69634 19.3314 1.63071 17.7975C0.565088 16.2635 0.00219727 14.4631 0.00219727 12.5982C0.00219727 10.3767 0.81001 8.24121 2.27095 6.57401C2.40415 6.41931 2.54595 6.26892 2.69204 6.12283L2.99712 6.42361C2.85962 6.56113 2.72212 6.70721 2.59321 6.8576C1.20103 8.44315 0.431885 10.4842 0.431885 12.5982C0.431885 16.2076 2.70063 19.4775 6.08228 20.7451C7.54751 21.2951 9.08579 21.5744 10.6542 21.5744H11.3545C12.9229 21.5744 14.4612 21.2951 15.9264 20.7451C19.3038 19.4775 21.5725 16.2033 21.5725 12.5982C21.5725 10.4842 20.8034 8.44745 19.4069 6.8576C19.2608 6.69434 19.1104 6.53104 18.9557 6.37634L19.2608 6.07129C19.4241 6.23456 19.5788 6.40213 19.7292 6.57401C21.1944 8.24121 21.9979 10.381 21.9979 12.5982C21.9979 14.4674 21.435 16.2635 20.3694 17.7975C19.3038 19.3314 17.817 20.4916 16.0682 21.1447C14.56 21.7119 12.9702 21.9998 11.3545 21.9998Z" fill="#4D2419"/>
<path d="M4.33775 5.28945L4.08853 4.93711C5.87173 3.67383 7.9686 3.00781 10.1514 3.00781H11.853C14.0358 3.00781 16.1327 3.67383 17.9159 4.93711L17.6666 5.28945C15.9608 4.07773 13.9498 3.4375 11.853 3.4375H10.1514C8.05453 3.4375 6.04787 4.07773 4.33775 5.28945Z" fill="#4D2419"/>
</svg>
