<svg width="14" height="14" viewBox="0 0 14 14" fill="none" xmlns="http://www.w3.org/2000/svg">
<path fill-rule="evenodd" clip-rule="evenodd" d="M6.06668 6.06667H0.93335C0.418152 6.06667 0 6.4848 0 7C0 7.51521 0.418152 7.93333 0.93335 7.93333H6.06668V13.0667C6.06668 13.5819 6.4848 14 7 14C7.5152 14 7.93335 13.5819 7.93335 13.0667V7.93333H13.0667C13.5819 7.93333 14 7.5152 14 7C14 6.4848 13.5819 6.06667 13.0667 6.06667H7.93335V0.933331C7.93335 0.418133 7.5152 0 7 0C6.4848 0 6.06668 0.418133 6.06668 0.933331V6.06667Z" fill="white"/>
</svg>
