<svg width="22" height="22" viewBox="0 0 22 22" fill="none" xmlns="http://www.w3.org/2000/svg">
<path fill-rule="evenodd" clip-rule="evenodd" d="M0 11C0 4.92487 4.92487 0 11 0C13.9174 0 16.7153 1.15893 18.7782 3.22182C20.841 5.28473 22 8.08262 22 11C22 17.0751 17.0751 22 11 22C4.92487 22 0 17.0751 0 11ZM15.4 11.0064C15.6933 11.0064 15.9744 10.8892 16.181 10.681C16.3892 10.4744 16.5064 10.1933 16.5064 9.9C16.5064 9.60674 16.3892 9.32558 16.181 9.119L11.781 4.719C11.6764 4.61886 11.5531 4.54035 11.418 4.488C11.1502 4.37798 10.8498 4.37798 10.582 4.488C10.4469 4.54035 10.3236 4.61886 10.219 4.719L5.819 9.119C5.53997 9.39807 5.43101 9.80474 5.53313 10.1859C5.63527 10.567 5.93298 10.8647 6.31413 10.9669C6.69529 11.069 7.10197 10.9601 7.381 10.681L9.9 8.151V16.5C9.9 17.1075 10.3925 17.6 11 17.6C11.6075 17.6 12.1 17.1075 12.1 16.5V8.151L14.619 10.681C14.8256 10.8892 15.1067 11.0064 15.4 11.0064Z" fill="#FFC971"/>
</svg>
